<svg width="32" height="32" viewBox="0 0 220 220" xmlns="http://www.w3.org/2000/svg">
  <defs>
    <linearGradient id="catFur" x1="0" y1="0" x2="1" y2="1">
      <stop offset="0%" stop-color="#71767c"/>
      <stop offset="100%" stop-color="#4a4e54"/>
    </linearGradient>
  </defs>
  <path d="M50,80 L20,15 Q55,25 80,60" fill="url(#catFur)" stroke="#3f4348" stroke-width="2" />
  <path d="M170,80 L200,15 Q165,25 140,60" fill="url(#catFur)" stroke="#3f4348" stroke-width="2" />
  <path d="M50,90 Q50,45 110,45 Q170,45 170,90 Q170,170 110,195 Q50,170 50,90" fill="url(#catFur)" stroke="#3f4348" stroke-width="2" />
  <ellipse cx="85" cy="115" rx="18" ry="14" fill="#1a1a1a" />
  <ellipse cx="135" cy="115" rx="18" ry="14" fill="#22c55e" />
  <path d="M90,175 Q110,192 130,175 Q120,195 110,195 Q100,195 90,175" fill="#f8fbff" />
  <path d="M102,152 Q110,145 118,152 Q118,162 110,168 Q102,162 102,152" fill="#111827" />
</svg>
